<svg xmlns="http://www.w3.org/2000/svg" id="Group_3" width="136.348" height="136.348" viewBox="0 0 136.348 136.348">
    <defs>
        <style>
            .cls-2{fill:#fff}
        </style>
    </defs>
    <rect id="Rectangle_2" width="136.348" height="136.348" fill="#2c3d50" rx="13.635"/>
    <g id="Group_1">
        <path id="Path_1" d="M22.973 110.231a6.2 6.2 0 0 1-2.43-2.305 6.722 6.722 0 0 1 0-6.664 6.2 6.2 0 0 1 2.43-2.3 7.22 7.22 0 0 1 3.475-.831 7.293 7.293 0 0 1 2.939.572 5.888 5.888 0 0 1 2.206 1.643l-1.858 1.716a4 4 0 0 0-3.144-1.466 4.168 4.168 0 0 0-2.072.51 3.62 3.62 0 0 0-1.421 1.42 4.474 4.474 0 0 0 0 4.145 3.62 3.62 0 0 0 1.421 1.42 4.167 4.167 0 0 0 2.072.509 3.977 3.977 0 0 0 3.144-1.482l1.858 1.715a5.792 5.792 0 0 1-2.215 1.661 7.357 7.357 0 0 1-2.948.572 7.179 7.179 0 0 1-3.457-.831z" class="cls-2"/>
        <path id="Path_2" d="M35.818 110.222a6.227 6.227 0 0 1-2.447-2.314 6.647 6.647 0 0 1 0-6.628 6.232 6.232 0 0 1 2.447-2.313 7.739 7.739 0 0 1 7.013 0 6.379 6.379 0 0 1 0 11.255 7.739 7.739 0 0 1-7.013 0zm5.512-2.135a3.662 3.662 0 0 0 1.4-1.42 4.474 4.474 0 0 0 0-4.145 3.662 3.662 0 0 0-1.4-1.42 4.181 4.181 0 0 0-4 0 3.646 3.646 0 0 0-1.4 1.42 4.466 4.466 0 0 0 0 4.145 3.646 3.646 0 0 0 1.4 1.42 4.188 4.188 0 0 0 4 0z" class="cls-2"/>
        <path id="Path_3" d="M59.821 98.341v12.506h-2.376l-6.235-7.593v7.593h-2.859V98.341h2.394l6.218 7.593v-7.593z" class="cls-2"/>
        <path id="Path_4" d="M65.377 100.7h-4v-2.359h10.9v2.359h-4v10.148h-2.9V100.7z" class="cls-2"/>
        <path id="Path_5" d="M81.8 110.848l-2.412-3.484h-2.666v3.484h-2.894V98.341h5.413a6.954 6.954 0 0 1 2.886.554 4.134 4.134 0 0 1 2.545 3.984 4.076 4.076 0 0 1-2.572 3.949l2.8 4.02zm-.733-9.586a3.038 3.038 0 0 0-1.983-.562h-2.362v4.359h2.358a3 3 0 0 0 1.983-.572 2.254 2.254 0 0 0 0-3.225z" class="cls-2"/>
        <path id="Path_6" d="M89.5 110.222a6.23 6.23 0 0 1-2.448-2.314 6.654 6.654 0 0 1 0-6.628 6.235 6.235 0 0 1 2.448-2.313 7.739 7.739 0 0 1 7.013 0 6.379 6.379 0 0 1 0 11.255 7.739 7.739 0 0 1-7.013 0zm5.512-2.135a3.652 3.652 0 0 0 1.4-1.42 4.474 4.474 0 0 0 0-4.145 3.652 3.652 0 0 0-1.4-1.42 4.181 4.181 0 0 0-4 0 3.655 3.655 0 0 0-1.4 1.42 4.474 4.474 0 0 0 0 4.145 3.655 3.655 0 0 0 1.4 1.42 4.188 4.188 0 0 0 4 0z" class="cls-2"/>
        <path id="Path_7" d="M102.037 98.341h2.895v10.148h6.268v2.358h-9.165V98.341z" class="cls-2"/>
        <path id="Path_8" d="M114.535 110.66a6.718 6.718 0 0 1-2.225-1.045l.983-2.18a6.66 6.66 0 0 0 1.912.947 7.184 7.184 0 0 0 2.215.357 3.544 3.544 0 0 0 1.823-.366 1.107 1.107 0 0 0 .589-.974.931.931 0 0 0-.348-.741 2.644 2.644 0 0 0-.894-.473q-.544-.178-1.474-.393a20.3 20.3 0 0 1-2.34-.68 3.782 3.782 0 0 1-1.563-1.089 2.941 2.941 0 0 1-.652-2 3.478 3.478 0 0 1 .589-1.974 3.964 3.964 0 0 1 1.778-1.4 7.261 7.261 0 0 1 2.9-.518 9.6 9.6 0 0 1 2.341.286 6.891 6.891 0 0 1 2 .822l-.893 2.2a6.973 6.973 0 0 0-3.466-.982 3.252 3.252 0 0 0-1.8.393 1.2 1.2 0 0 0-.58 1.036 1.014 1.014 0 0 0 .67.956 10.5 10.5 0 0 0 2.045.616 20.617 20.617 0 0 1 2.341.679 3.87 3.87 0 0 1 1.563 1.072 2.873 2.873 0 0 1 .652 1.983 3.411 3.411 0 0 1-.6 1.956 4.022 4.022 0 0 1-1.8 1.4 7.309 7.309 0 0 1-2.912.519 10.226 10.226 0 0 1-2.867-.4z" class="cls-2"/>
    </g>
    <g id="Group_2">
        <path id="Path_9" d="M46.787 92.625a27.065 27.065 0 0 0 16.667-5.672l.55-.425-6.034-10.223-.716.643a15.645 15.645 0 0 1-24.827-5.4h35.781a27.289 27.289 0 0 0 26.578 21.216A27.446 27.446 0 0 0 118.354 79.3a28.425 28.425 0 0 0 3.832-15.768l-.017-37.938h-11.411l-.014 36.58c-.152 4.129-.44 7.824-2.435 11.216A15.66 15.66 0 1 1 81.314 57.5a17.579 17.579 0 0 1 15.127-9 21.469 21.469 0 0 1 9.39 2.333l1.135.551-.026-11.358-.508-.192a30.181 30.181 0 0 0-10.689-1.977 28.38 28.38 0 0 0-24.474 13.736c-.156.264-.3.533-.445.8A27.292 27.292 0 0 0 20 59.991h-5.677v11.56H20.2a27.356 27.356 0 0 0 26.587 21.074zm0-42.974a15.685 15.685 0 0 1 14.728 10.34H32.059a15.685 15.685 0 0 1 14.728-10.34z" class="cls-2"/>
    </g>
</svg>
